<svg version="1.1" xmlns="http://www.w3.org/2000/svg" xmlns:xlink="http://www.w3.org/1999/xlink" width="231.19847" height="232.81283" viewBox="0,0,231.19847,232.81283"><defs><radialGradient cx="244.28209" cy="106.29113" r="42.69754" gradientUnits="userSpaceOnUse" id="color-1"><stop offset="0" stop-color="#13fa05"/><stop offset="1" stop-color="#13fa05" stop-opacity="0"/></radialGradient><radialGradient cx="245.70099" cy="253.70888" r="42.69754" gradientUnits="userSpaceOnUse" id="color-2"><stop offset="0" stop-color="#00ffff"/><stop offset="1" stop-color="#00ffff" stop-opacity="0"/></radialGradient><radialGradient cx="167.0983" cy="184.486" r="42.69754" gradientUnits="userSpaceOnUse" id="color-3"><stop offset="0" stop-color="#c24b99"/><stop offset="1" stop-color="#c24b99" stop-opacity="0"/></radialGradient><radialGradient cx="312.90169" cy="184.29055" r="42.69754" gradientUnits="userSpaceOnUse" id="color-4"><stop offset="0" stop-color="#f9393f"/><stop offset="1" stop-color="#f9393f" stop-opacity="0"/></radialGradient></defs><g transform="translate(-124.40076,-63.59359)"><g data-paper-data="{&quot;isPaintingLayer&quot;:true}" fill-rule="nonzero" stroke-linecap="butt" stroke-linejoin="miter" stroke-miterlimit="10" stroke-dasharray="" stroke-dashoffset="0" style="mix-blend-mode: normal"><g><path d="M263.251,81.39252c3.75502,4.19398 19.94983,28.0364 18.56612,30.94343c-0.73481,1.54376 -14.95625,9.75572 -15.65168,10.91127c-0.76608,1.27295 -7.58845,-12.3686 -8.09904,-11.29261c-1.19626,2.52093 -0.62485,26.16673 -0.62485,26.16673c0,0 0.05955,7.04813 -11.88327,6.41833c-12.49214,-0.65876 -10.95006,-3.835 -10.95006,-3.835c0,0 -0.2769,-24.56007 -0.56551,-28.39377c-0.07387,-0.98119 -11.84263,14.43562 -12.46576,13.78767c-0.70979,-0.73806 -1.86139,-0.7694 -2.42652,-1.40345c-2.27804,-2.55584 -11.54222,-15.32379 -11.54222,-15.32379c0,0 23.65087,-38.15142 39.44452,-37.10641c7.75006,0.51279 16.19826,9.12759 16.19826,9.12759z" fill="#13fa05" stroke="none" stroke-width="0"/><path d="M262.02496,82.95897c3.0824,4.60229 18.8496,25.93819 17.66111,28.43509c-0.63115,1.32596 -13.41765,10.52224 -14.01497,11.51477c-0.658,1.09337 -9.03217,-13.05221 -9.47072,-12.12802c-0.59892,1.451 0.26331,25.04656 0.26331,25.04656c0,0 -1.52028,7.05379 -11.77821,6.51284c-10.72976,-0.56582 -9.83381,-1.15111 -9.83381,-1.15111c0,0 0.19074,-27.238 -0.05715,-30.53085c-0.06345,-0.84276 -12.7433,15.11333 -13.27853,14.5568c-0.60966,-0.63393 0.1155,-0.08942 -0.3699,-0.63402c-1.95666,-2.19527 -11.91385,-13.73334 -11.91385,-13.73334c0,0 22.09109,-38.38888 37.87971,-36.58574c6.34901,0.72509 11.83062,4.09473 14.91302,8.69702z" fill="none" stroke="#ffffff" stroke-width="3.5"/><path d="M262.651,81.59252c3.75502,4.19398 19.94983,28.0364 18.56612,30.94343c-0.73481,1.54376 -14.95625,9.75572 -15.65168,10.91127c-0.76608,1.27295 -7.58845,-12.3686 -8.09904,-11.29261c-1.19626,2.52093 -0.62485,26.16673 -0.62485,26.16673c0,0 0.05955,7.04813 -11.88327,6.41833c-12.49214,-0.65876 -10.95006,-3.835 -10.95006,-3.835c0,0 -0.2769,-24.56007 -0.56551,-28.39377c-0.07387,-0.98119 -11.84263,14.43562 -12.46576,13.78767c-0.70979,-0.73806 -1.86139,-0.7694 -2.42652,-1.40345c-2.27804,-2.55584 -11.54222,-15.32379 -11.54222,-15.32379c0,0 23.65087,-38.15142 39.44452,-37.10641c7.75006,0.51279 16.19826,9.12759 16.19826,9.12759z" fill="none" stroke="#0a4447" stroke-width="4"/></g><path d="M201.58455,106.29113c0,-23.5812 19.11634,-42.69754 42.69754,-42.69754c23.5812,0 42.69754,19.11634 42.69754,42.69754c0,23.5812 -19.11634,42.69754 -42.69754,42.69754c-23.5812,0 -42.69754,-19.11634 -42.69754,-42.69754z" fill="url(#color-1)" stroke="none" stroke-width="NaN"/><g><g><path d="M227.12462,278.76414c-3.75502,-4.19398 -19.94983,-28.0364 -18.56612,-30.94343c0.73481,-1.54376 14.95625,-9.75572 15.65168,-10.91127c0.76608,-1.27295 7.58845,12.3686 8.09904,11.29261c1.19626,-2.52093 0.62485,-26.16673 0.62485,-26.16673c0,0 -0.05955,-7.04813 11.88327,-6.41833c12.49214,0.65876 10.95006,3.835 10.95006,3.835c0,0 0.2769,24.56007 0.56551,28.39377c0.07387,0.98119 11.84263,-14.43562 12.46576,-13.78767c0.70979,0.73806 1.86139,0.7694 2.42652,1.40345c2.27804,2.55584 11.54222,15.32379 11.54222,15.32379c0,0 -23.65087,38.15142 -39.44452,37.10641c-7.75006,-0.51279 -16.19826,-9.12759 -16.19826,-9.12759z" fill="#01ffff" stroke="none" stroke-width="0"/><path d="M228.35066,277.19769c-3.0824,-4.6023 -18.8496,-25.93819 -17.6611,-28.43509c0.63115,-1.32596 13.41765,-10.52224 14.01497,-11.51477c0.658,-1.09337 9.03216,13.05222 9.47072,12.12803c0.59892,-1.451 -0.26331,-25.04657 -0.26331,-25.04657c0,0 1.52028,-7.05379 11.77821,-6.51283c10.72976,0.56582 9.8338,1.15111 9.8338,1.15111c0,0 -0.19074,27.238 0.05716,30.53085c0.06345,0.84276 12.74331,-15.11333 13.27853,-14.5568c0.60965,0.63394 -0.1155,0.08942 0.3699,0.63402c1.95666,2.19527 11.91385,13.73335 11.91385,13.73335c0,0 -22.09109,38.38888 -37.8797,36.58574c-6.34902,-0.72509 -11.83062,-4.09473 -14.91303,-8.69702z" fill="none" stroke="#ffffff" stroke-width="3.5"/><path d="M227.72462,278.56414c-3.75502,-4.19398 -19.94983,-28.0364 -18.56612,-30.94343c0.73481,-1.54376 14.95625,-9.75572 15.65168,-10.91127c0.76608,-1.27295 7.58845,12.3686 8.09904,11.29261c1.19626,-2.52093 0.62485,-26.16673 0.62485,-26.16673c0,0 -0.05955,-7.04813 11.88327,-6.41833c12.49214,0.65876 10.95006,3.835 10.95006,3.835c0,0 0.2769,24.56007 0.56551,28.39377c0.07387,0.98119 11.84263,-14.43562 12.46576,-13.78767c0.70979,0.73806 1.86139,0.7694 2.42652,1.40345c2.27804,2.55584 11.54222,15.32379 11.54222,15.32379c0,0 -23.65087,38.15142 -39.44452,37.10641c-7.75006,-0.51279 -16.19826,-9.12759 -16.19826,-9.12759z" fill="none" stroke="#1542b7" stroke-width="4"/></g><path d="M203.00345,253.70888c0,-23.5812 19.11634,-42.69754 42.69754,-42.69754c23.5812,0 42.69754,19.11634 42.69754,42.69754c0,23.5812 -19.11634,42.69754 -42.69754,42.69754c-23.5812,0 -42.69754,-19.11634 -42.69754,-42.69754z" fill="url(#color-2)" stroke="none" stroke-width="NaN"/></g><g><g><path d="M141.46189,165.96918c4.2578,-3.68249 28.37463,-19.46577 31.25748,-18.03237c1.53092,0.76119 9.49762,15.12146 10.64107,15.83662c1.25961,0.78781 -12.49701,7.37508 -11.42993,7.90406c2.50003,1.23934 26.15216,1.0738 26.15216,1.0738c0,0 7.04811,0.06141 6.21346,11.99166c-0.87304,12.47899 -4.02235,10.88264 -4.02235,10.88264c0,0 -24.5612,-0.14461 -28.39929,0.07817c-0.98231,0.05702 14.23026,12.08861 13.57171,12.70053c-0.75013,0.69702 -0.80123,1.84792 -1.44488,2.40208c-2.59456,2.23385 -15.5196,11.27755 -15.5196,11.27755c0,0 -37.73994,-24.30209 -36.42405,-40.07548c0.64571,-7.74012 9.40422,-16.03924 9.40422,-16.03924z" fill="#c24b99" stroke="none" stroke-width="0"/><g fill="none"><path d="M143.00707,167.22193c4.65452,-3.00297 26.25784,-18.4017 28.73398,-17.17053c1.31494,0.65381 10.29043,13.59625 11.27256,14.21051c1.08191,0.67667 -13.20529,8.80685 -12.28876,9.2612c1.44051,0.62373 25.04739,0.16655 25.04739,0.16655c0,0 7.02666,1.64111 6.30975,11.88825c-0.74987,10.71847 -1.31969,9.8126 -1.31969,9.8126c0,0 -27.23072,-0.65814 -30.52733,-0.46679c-0.84373,0.04898 14.89243,13.00079 14.32679,13.52638c-0.64431,0.59868 -0.08743,-0.11702 -0.64028,0.35897c-2.22852,1.9187 -13.93578,11.67642 -13.93578,11.67642c0,0 -38.00413,-22.74662 -35.93031,-38.50196c0.83393,-6.33563 4.29715,-11.75861 8.95167,-14.76158z" stroke="#ffffff" stroke-width="3.5"/><path d="M141.65156,166.57253c4.2578,-3.68249 28.37463,-19.46576 31.25749,-18.03237c1.53092,0.76119 9.49762,15.12146 10.64107,15.83662c1.25961,0.78781 -12.49701,7.37508 -11.42993,7.90406c2.50003,1.23934 26.15215,1.0738 26.15215,1.0738c0,0 7.04811,0.06141 6.21346,11.99167c-0.87304,12.47899 -4.02235,10.88263 -4.02235,10.88263c0,0 -24.5612,-0.14461 -28.39929,0.07817c-0.98231,0.05702 14.23027,12.08861 13.57172,12.70053c-0.75013,0.69702 -0.80123,1.84791 -1.44488,2.40208c-2.59456,2.23385 -15.5196,11.27755 -15.5196,11.27755c0,0 -37.73994,-24.30209 -36.42405,-40.07548c0.64571,-7.74012 9.40422,-16.03924 9.40422,-16.03924z" stroke="#3c1f56" stroke-width="4"/></g></g><path d="M124.40076,184.486c0,-23.5812 19.11634,-42.69754 42.69754,-42.69754c23.5812,0 42.69754,19.11634 42.69754,42.69754c0,23.5812 -19.11634,42.69754 -42.69754,42.69754c-23.5812,0 -42.69754,-19.11634 -42.69754,-42.69754z" fill="url(#color-3)" stroke="none" stroke-width="NaN"/></g><g><g><path d="M338.01988,202.82579c-4.24703,3.69492 -28.31764,19.54858 -31.20467,18.12361c-1.53314,-0.75672 -9.54176,-15.09365 -10.68729,-15.80547c-1.26191,-0.78413 12.4754,-7.41156 11.40679,-7.93742c-2.50364,-1.23204 -26.15518,-0.99739 -26.15518,-0.99739c0,0 -7.04826,-0.04082 -6.24847,-11.97346c0.83658,-12.48149 3.99054,-10.89434 3.99054,-10.89434c0,0 24.56152,0.07286 28.39894,-0.16113c0.98214,-0.05989 -14.26552,-12.04699 -13.60876,-12.66083c0.74809,-0.69921 0.79583,-1.85025 1.43786,-2.40629c2.58802,-2.24141 15.48659,-11.32284 15.48659,-11.32284c0,0 37.81077,24.19174 36.54097,39.9689c-0.6231,7.74197 -9.35732,16.06664 -9.35732,16.06664z" fill="#f9393f" stroke="none" stroke-width="0"/><path d="M336.47105,201.57756c-4.64572,3.01656 -26.20397,18.47834 -28.6837,17.25441c-1.31684,-0.64996 -10.33012,-13.56613 -11.31403,-14.17752c-1.08388,-0.6735 13.17951,-8.84539 12.26166,-9.29706c-1.44232,-0.61952 -25.04777,-0.09338 -25.04777,-0.09338c0,0 -7.03142,-1.62057 -6.34446,-11.86976c0.71855,-10.72061 1.29102,-9.81642 1.29102,-9.81642c0,0 27.23252,0.57858 30.52856,0.3776c0.84358,-0.05144 -14.93034,-12.95722 -14.36624,-13.48446c0.64255,-0.60057 0.08777,0.11676 0.63923,-0.36083c2.2229,-1.9252 13.9016,-11.71708 13.9016,-11.71708c0,0 38.07042,22.6355 36.04264,38.39683c-0.81542,6.33805 -4.26278,11.77111 -8.9085,14.78767z" fill="none" stroke="#ffffff" stroke-width="3.5"/><path d="M337.82844,202.223c-4.24703,3.69492 -28.31764,19.54858 -31.20467,18.12361c-1.53314,-0.75672 -9.54176,-15.09365 -10.68729,-15.80547c-1.26191,-0.78413 12.4754,-7.41156 11.40679,-7.93742c-2.50364,-1.23204 -26.15518,-0.99739 -26.15518,-0.99739c0,0 -7.04826,-0.04082 -6.24847,-11.97346c0.83658,-12.48149 3.99054,-10.89434 3.99054,-10.89434c0,0 24.56152,0.07286 28.39894,-0.16113c0.98214,-0.05989 -14.26552,-12.04699 -13.60876,-12.66083c0.74809,-0.69921 0.79583,-1.85025 1.43786,-2.40629c2.58802,-2.24141 15.48659,-11.32284 15.48659,-11.32284c0,0 37.81077,24.19174 36.54097,39.9689c-0.6231,7.74197 -9.35732,16.06664 -9.35732,16.06664z" fill="none" stroke="#651038" stroke-width="4"/></g><path d="M270.20415,184.29055c0,-23.5812 19.11634,-42.69754 42.69754,-42.69754c23.5812,0 42.69754,19.11634 42.69754,42.69754c0,23.5812 -19.11634,42.69754 -42.69754,42.69754c-23.5812,0 -42.69754,-19.11634 -42.69754,-42.69754z" fill="url(#color-4)" stroke="none" stroke-width="NaN"/></g></g></g></svg>