<svg version="1.1" xmlns="http://www.w3.org/2000/svg" xmlns:xlink="http://www.w3.org/1999/xlink" width="85.39508" height="85.39508" viewBox="0,0,85.39508,85.39508"><defs><radialGradient cx="282.28211" cy="177.86256" r="42.69754" gradientUnits="userSpaceOnUse" id="color-1"><stop offset="0" stop-color="#13fa05"/><stop offset="1" stop-color="#13fa05" stop-opacity="0"/></radialGradient></defs><g transform="translate(-239.58457,-135.16502)"><g data-paper-data="{&quot;isPaintingLayer&quot;:true}" fill-rule="nonzero" stroke-linecap="butt" stroke-linejoin="miter" stroke-miterlimit="10" stroke-dasharray="" stroke-dashoffset="0" style="mix-blend-mode: normal"><g><path d="M301.25102,152.96395c3.75502,4.19398 19.94983,28.0364 18.56612,30.94343c-0.73481,1.54376 -14.95625,9.75572 -15.65168,10.91127c-0.76608,1.27295 -7.58845,-12.3686 -8.09904,-11.29261c-1.19626,2.52093 -0.62485,26.16673 -0.62485,26.16673c0,0 0.05955,7.04813 -11.88327,6.41833c-12.49214,-0.65876 -10.95006,-3.835 -10.95006,-3.835c0,0 -0.2769,-24.56007 -0.56551,-28.39377c-0.07387,-0.98119 -11.84263,14.43562 -12.46576,13.78767c-0.70979,-0.73806 -1.86139,-0.7694 -2.42652,-1.40345c-2.27804,-2.55584 -11.54222,-15.32379 -11.54222,-15.32379c0,0 23.65087,-38.15142 39.44452,-37.10641c7.75006,0.51279 16.19826,9.12759 16.19826,9.12759z" fill="#13fa05" stroke="none" stroke-width="0"/><path d="M300.02498,154.5304c3.0824,4.60229 18.8496,25.93819 17.66111,28.43509c-0.63115,1.32596 -13.41765,10.52224 -14.01497,11.51477c-0.658,1.09337 -9.03217,-13.05221 -9.47072,-12.12802c-0.59892,1.451 0.26331,25.04656 0.26331,25.04656c0,0 -1.52028,7.05379 -11.77821,6.51284c-10.72976,-0.56582 -9.83381,-1.15111 -9.83381,-1.15111c0,0 0.19074,-27.238 -0.05715,-30.53085c-0.06345,-0.84276 -12.7433,15.11333 -13.27853,14.5568c-0.60966,-0.63393 0.1155,-0.08942 -0.3699,-0.63402c-1.95666,-2.19527 -11.91385,-13.73334 -11.91385,-13.73334c0,0 22.09109,-38.38888 37.87971,-36.58574c6.34901,0.72509 11.83062,4.09473 14.91302,8.69702z" fill="none" stroke="#ffffff" stroke-width="3.5"/><path d="M300.65101,153.16395c3.75502,4.19398 19.94983,28.0364 18.56612,30.94343c-0.73481,1.54376 -14.95625,9.75572 -15.65168,10.91127c-0.76608,1.27295 -7.58845,-12.3686 -8.09904,-11.29261c-1.19626,2.52093 -0.62485,26.16673 -0.62485,26.16673c0,0 0.05955,7.04813 -11.88327,6.41833c-12.49214,-0.65876 -10.95006,-3.835 -10.95006,-3.835c0,0 -0.2769,-24.56007 -0.56551,-28.39377c-0.07387,-0.98119 -11.84263,14.43562 -12.46576,13.78767c-0.70979,-0.73806 -1.86139,-0.7694 -2.42652,-1.40345c-2.27804,-2.55584 -11.54222,-15.32379 -11.54222,-15.32379c0,0 23.65087,-38.15142 39.44452,-37.10641c7.75006,0.51279 16.19826,9.12759 16.19826,9.12759z" fill="none" stroke="#0a4447" stroke-width="4"/></g><path d="M239.58458,177.86256c0,-23.5812 19.11634,-42.69754 42.69754,-42.69754c23.5812,0 42.69754,19.11634 42.69754,42.69754c0,23.5812 -19.11634,42.69754 -42.69754,42.69754c-23.5812,0 -42.69754,-19.11634 -42.69754,-42.69754z" fill="url(#color-1)" stroke="none" stroke-width="NaN"/></g></g></svg>