<svg version="1.1" xmlns="http://www.w3.org/2000/svg" xmlns:xlink="http://www.w3.org/1999/xlink" width="76.34076" height="78.64744" viewBox="0,0,76.34076,78.64744"><g transform="translate(-80.24706,-141.11509)"><g data-paper-data="{&quot;isPaintingLayer&quot;:true}" fill-rule="nonzero" stroke-linecap="butt" stroke-linejoin="miter" stroke-miterlimit="10" stroke-dasharray="" stroke-dashoffset="0" style="mix-blend-mode: normal"><path d="M91.49523,160.63584c4.2578,-3.68249 28.37463,-19.46577 31.25748,-18.03237c1.53092,0.76119 9.49762,15.12146 10.64107,15.83662c1.25961,0.78781 -12.49701,7.37508 -11.42993,7.90406c2.50003,1.23934 26.15216,1.0738 26.15216,1.0738c0,0 7.04811,0.06141 6.21346,11.99166c-0.87304,12.47899 -4.02235,10.88264 -4.02235,10.88264c0,0 -24.5612,-0.14461 -28.39929,0.07817c-0.98231,0.05702 14.23026,12.08861 13.57171,12.70053c-0.75013,0.69702 -0.80123,1.84792 -1.44488,2.40208c-2.59456,2.23385 -15.5196,11.27755 -15.5196,11.27755c0,0 -37.73994,-24.30209 -36.42405,-40.07548c0.64571,-7.74012 9.40422,-16.03924 9.40422,-16.03924z" data-paper-data="{&quot;index&quot;:null}" fill="#c24b99" stroke="none" stroke-width="0"/><g data-paper-data="{&quot;index&quot;:null}" fill="none"><path d="M93.04041,161.8886c4.65452,-3.00297 26.25784,-18.4017 28.73398,-17.17053c1.31494,0.65381 10.29043,13.59625 11.27256,14.21051c1.08191,0.67667 -13.20529,8.80685 -12.28876,9.2612c1.44051,0.62373 25.04739,0.16655 25.04739,0.16655c0,0 7.02666,1.64111 6.30975,11.88825c-0.74987,10.71847 -1.31969,9.8126 -1.31969,9.8126c0,0 -27.23072,-0.65814 -30.52733,-0.46679c-0.84373,0.04898 14.89243,13.00079 14.32679,13.52638c-0.64431,0.59868 -0.08743,-0.11702 -0.64028,0.35897c-2.22852,1.9187 -13.93578,11.67642 -13.93578,11.67642c0,0 -38.00413,-22.74662 -35.93031,-38.50196c0.83393,-6.33563 4.29715,-11.75861 8.95167,-14.76158z" stroke="#ffffff" stroke-width="3.5"/><path d="M91.6849,161.2392c4.2578,-3.68249 28.37463,-19.46576 31.25749,-18.03237c1.53092,0.76119 9.49762,15.12146 10.64107,15.83662c1.25961,0.78781 -12.49701,7.37508 -11.42993,7.90406c2.50003,1.23934 26.15215,1.0738 26.15215,1.0738c0,0 7.04811,0.06141 6.21346,11.99167c-0.87304,12.47899 -4.02235,10.88263 -4.02235,10.88263c0,0 -24.5612,-0.14461 -28.39929,0.07817c-0.98231,0.05702 14.23027,12.08861 13.57172,12.70053c-0.75013,0.69702 -0.80123,1.84791 -1.44488,2.40208c-2.59456,2.23385 -15.5196,11.27755 -15.5196,11.27755c0,0 -37.73994,-24.30209 -36.42405,-40.07548c0.64571,-7.74012 9.40422,-16.03924 9.40422,-16.03924z" stroke="#3c1f56" stroke-width="4"/></g></g></g></svg>