<svg version="1.1" xmlns="http://www.w3.org/2000/svg" xmlns:xlink="http://www.w3.org/1999/xlink" width="76.34068" height="78.65793" viewBox="0,0,76.34068,78.65793"><g transform="translate(-323.37638,-140.31471)"><g data-paper-data="{&quot;isPaintingLayer&quot;:true}" fill-rule="nonzero" stroke-linecap="butt" stroke-linejoin="miter" stroke-miterlimit="10" stroke-dasharray="" stroke-dashoffset="0" style="mix-blend-mode: normal"><path d="M388.5199,199.36151c-4.24703,3.69492 -28.31764,19.54858 -31.20467,18.12361c-1.53314,-0.75672 -9.54176,-15.09365 -10.68729,-15.80547c-1.26191,-0.78413 12.4754,-7.41156 11.40679,-7.93742c-2.50364,-1.23204 -26.15518,-0.99739 -26.15518,-0.99739c0,0 -7.04826,-0.04082 -6.24847,-11.97346c0.83658,-12.48149 3.99054,-10.89434 3.99054,-10.89434c0,0 24.56152,0.07286 28.39894,-0.16113c0.98214,-0.05989 -14.26552,-12.04699 -13.60876,-12.66083c0.74809,-0.69921 0.79583,-1.85025 1.43786,-2.40629c2.58802,-2.24141 15.48659,-11.32284 15.48659,-11.32284c0,0 37.81077,24.19174 36.54097,39.9689c-0.6231,7.74197 -9.35732,16.06664 -9.35732,16.06664z" data-paper-data="{&quot;index&quot;:null}" fill="#f9393f" stroke="none" stroke-width="0"/><path d="M386.97107,198.11328c-4.64572,3.01656 -26.20397,18.47834 -28.6837,17.25441c-1.31684,-0.64996 -10.33012,-13.56613 -11.31403,-14.17752c-1.08388,-0.6735 13.17951,-8.84539 12.26166,-9.29706c-1.44232,-0.61952 -25.04777,-0.09338 -25.04777,-0.09338c0,0 -7.03142,-1.62057 -6.34446,-11.86976c0.71855,-10.72061 1.29102,-9.81642 1.29102,-9.81642c0,0 27.23252,0.57858 30.52856,0.3776c0.84358,-0.05144 -14.93034,-12.95722 -14.36624,-13.48446c0.64255,-0.60057 0.08777,0.11676 0.63923,-0.36083c2.2229,-1.9252 13.9016,-11.71708 13.9016,-11.71708c0,0 38.07042,22.6355 36.04264,38.39683c-0.81542,6.33805 -4.26278,11.77111 -8.9085,14.78767z" data-paper-data="{&quot;index&quot;:null}" fill="none" stroke="#ffffff" stroke-width="3.5"/><path d="M388.32846,198.75872c-4.24703,3.69492 -28.31764,19.54858 -31.20467,18.12361c-1.53314,-0.75672 -9.54176,-15.09365 -10.68729,-15.80547c-1.26191,-0.78413 12.4754,-7.41156 11.40679,-7.93742c-2.50364,-1.23204 -26.15518,-0.99739 -26.15518,-0.99739c0,0 -7.04826,-0.04082 -6.24847,-11.97346c0.83658,-12.48149 3.99054,-10.89434 3.99054,-10.89434c0,0 24.56152,0.07286 28.39894,-0.16113c0.98214,-0.05989 -14.26552,-12.04699 -13.60876,-12.66083c0.74809,-0.69921 0.79583,-1.85025 1.43786,-2.40629c2.58802,-2.24141 15.48659,-11.32284 15.48659,-11.32284c0,0 37.81077,24.19174 36.54097,39.9689c-0.6231,7.74197 -9.35732,16.06664 -9.35732,16.06664z" data-paper-data="{&quot;index&quot;:null}" fill="none" stroke="#651038" stroke-width="4"/></g></g></svg>