<svg version="1.1" xmlns="http://www.w3.org/2000/svg" xmlns:xlink="http://www.w3.org/1999/xlink" width="485" height="361" viewBox="0,0,485,361"><g transform="translate(2.27245,1.03642)"><g data-paper-data="{&quot;isPaintingLayer&quot;:true}" fill-rule="nonzero" stroke-linejoin="miter" stroke-miterlimit="10" stroke-dasharray="" stroke-dashoffset="0" style="mix-blend-mode: normal"><path d="M-2.27245,359.96358v-361h485v361z" fill="#000000" stroke="none" stroke-width="NaN" stroke-linecap="butt"/><g><path d="M85.33727,214.2422c0,0 -18.23229,-2.35914 -18.53555,-26.3844c-0.05144,-4.07499 8.94792,-17.76959 9.21435,-22.62616c0.13513,-2.46315 14.13892,-3.01818 14.2559,-5.60852c0.31722,-7.02553 -5.95728,-24.63717 -5.22031,-31.68344c0.18166,-1.7368 9.15815,-7.44752 9.34367,-9.16335c0.50162,-4.6391 -3.76228,-7.52958 -3.16943,-11.9408c0.9512,-7.07728 -0.02789,-6.54174 6.94125,-12.02843c2.67962,-2.10962 7.17532,-4.10289 7.78525,-7.25284c3.68854,-19.04876 10.03541,-34.74468 11.54651,-40.24178c1.1568,-4.20813 14.41265,-11.23042 22.88244,-14.16754c3.1024,-1.07584 8.10646,-3.72951 24.08475,-3.06696c3.4278,0.14215 3.95247,6.0655 8.19876,6.22573c7.99637,0.30175 4.24494,-5.19844 12.03379,-5.52519c10.47781,-0.43953 13.86233,15.85901 13.86233,15.85901c0,0 5.30541,1.12761 16.77835,3.76486c4.50283,1.03505 9.73272,0.84543 14.50192,1.48297c3.26739,0.43679 6.4517,-3.75563 9.65143,-4.54836c1.68685,-0.41792 13.61972,2.26763 16.15706,2.82413c6.20949,1.36192 1.68458,13.87227 8.54199,14.54369c3.40866,0.33375 7.68412,-13.03863 11.23416,-12.76906c3.04951,0.23156 19.58096,3.25688 22.53782,3.42613c3.9011,0.22329 9.51496,-4.10858 13.15031,-3.93375c2.86419,0.13774 10.50353,1.21105 13.10397,1.27192c11.84534,0.27728 13.16523,-10.81876 18.02851,-10.3375c13.30623,1.31675 42.23795,13.44145 45.24645,26.46985c2.99022,12.9492 -0.66436,10.69039 0.67526,23.91268c0.3576,3.52968 19.89168,8.01006 20.09135,12.1756c0.0923,1.92586 -5.43559,19.51158 -5.34246,21.48444c0.19896,4.21443 5.77376,10.68999 5.95609,15.03901c0.12942,3.0871 -19.1993,23.86525 -18.92055,26.80864c2.4107,25.45328 18.72405,28.43923 23.23451,50.55435c0.82912,4.06524 -43.97666,19.82558 -58.31164,10.42632c-4.18915,-2.74678 -3.38041,-7.5472 -9.90577,-9.04482c-4.45822,-1.02319 -10.04126,18.53473 -14.45715,19.72749c-3.02393,0.81678 -14.65972,-3.13585 -16.98221,-3.65037c-2.68555,-0.59493 -9.36414,-11.12523 -12.25581,-11.67589c-5.85775,-1.11552 -15.92296,0.45959 -22.1436,-0.45115c-2.69515,-0.3946 -7.67834,13.06363 -10.41759,12.66777c-6.62901,-0.95801 -24.04135,-6.56079 -30.6829,-7.49714c-1.14884,-0.16197 -6.44726,-3.28174 -7.59203,-3.44094c-4.0976,-0.56971 -8.48935,6.72806 -12.49764,6.16055c-5.35621,-0.75833 -5.85662,-10.45344 -11.06666,-11.12359c-4.06365,-0.52271 -8.48639,0.69698 -12.39177,0.22257c-2.95407,-0.35885 -5.60801,11.00052 -8.44051,10.65254c-5.84265,-0.71775 -6.88289,-7.46128 -12.19426,-8.07853c-4.78031,-0.55553 -4.94141,-4.80923 -9.21078,-5.26029c-3.33646,-0.3525 -6.07456,20.75267 -8.68796,20.8328c-3.04338,0.09334 -13.02779,-4.43537 -15.95115,-4.84182c-3.72357,-0.51774 -13.87193,-17.00632 -16.52979,-17.37218c-15.55309,-2.14098 -38.13063,-2.81821 -38.13063,-2.81821z" fill="#ffd200" stroke="none" stroke-width="0" stroke-linecap="butt"/><path d="M131.05971,197.97538l0.48158,-141.75127c0,0 19.62052,-4.18778 28.57432,-3.85547c9.44389,0.35049 38.25775,14.18753 70.70564,24.49568c10.49135,3.33292 22.35179,7.40054 33.32843,9.57565c7.30541,1.44761 15.14363,-4.70381 22.22283,-3.86037c41.37253,4.92938 75.84993,7.95189 75.84993,7.95189c0,0 1.94287,8.51773 5.76062,18.06115c2.04775,5.1189 7.07654,10.37874 7.16224,15.12295c0.35078,19.41797 -11.01892,72.21201 -11.01892,72.21201z" fill="#000000" stroke="none" stroke-width="0" stroke-linecap="butt"/><path d="M169.54769,43.87903c-0.02755,3.12718 -5.34319,11.2503 -14.61003,16.2821c-3.99399,2.16871 -14.18268,1.42877 -15.75306,3.34867c-1.19306,1.45859 7.24937,0.35265 8.95977,1.45767c3.60402,2.3284 3.09358,6.45338 0.52888,8.76644c-4.80871,4.33687 -7.67583,2.52461 -10.3924,7.23768c-7.00313,12.15 1.6735,26.68376 -7.27864,30.17156c-36.183,14.09711 -30.45109,12.92433 -28.7077,-9.13866c0.51087,-6.46513 6.20187,0.92902 12.33487,-10.1503c2.26628,-4.09404 4.96841,-15.14802 7.3698,-23.89518c2.10592,-7.67099 3.81458,-13.17592 7.03636,-15.94897c17.09065,-14.71028 40.54884,-12.29489 40.51213,-8.13101z" fill="#ffa000" stroke="#000000" stroke-width="2" stroke-linecap="butt"/><path d="M162.75679,82.95573c-0.51986,6.57879 -2.79966,6.50281 -10.26096,5.91322c-7.46131,-0.58959 2.19169,17.08059 -4.40513,16.90051c-4.66751,-0.12742 -6.7846,2.81368 -9.4196,-0.92261c-3.30029,-4.67959 -0.54725,-19.01581 0.6552,-22.89298c2.03892,-6.57436 14.85583,-8.73851 18.47675,-8.45238c7.46131,0.58959 5.4736,2.87548 4.95374,9.45427z" fill="#ffa000" stroke="#000000" stroke-width="2" stroke-linecap="butt"/><path d="M173.72033,88.49965c-0.4311,5.45557 -1.46699,12.16273 -7.2796,12.58049c-19.70001,1.41579 -3.32022,-7.92842 -2.88913,-13.38399c0.4311,-5.45557 4.01293,-11.08453 7.14186,-10.83728c3.12892,0.24725 3.45797,6.18523 3.02688,11.6408z" fill="#ffa000" stroke="#000000" stroke-width="2" stroke-linecap="butt"/><path d="M197.96733,53.57964c6.49856,0.5135 6.41285,24.28642 5.52532,35.5185c-0.88755,11.23207 -20.8739,12.09097 -27.37244,11.57746c-6.49854,-0.51351 0.33753,-13.52079 1.22508,-24.75286c0.88755,-11.23207 14.12351,-22.85661 20.62204,-22.3431z" fill="#ffa000" stroke="#000000" stroke-width="2" stroke-linecap="butt"/><path d="M161.12699,57.79417c-0.44479,-3.48304 15.5107,-17.97139 17.56741,-17.84629c2.59794,-0.33276 14.22496,14.41235 13.69438,17.17458c-0.56886,2.96165 -17.31128,17.9054 -20.71738,17.01268c-3.73651,-0.9793 -10.14471,-13.21096 -10.54444,-16.34098z" fill="#ffa000" stroke="#000000" stroke-width="2" stroke-linecap="butt"/><path d="M169.4478,68.57464l2.73119,-23.46446" fill="none" stroke="#000000" stroke-width="2" stroke-linecap="round"/><path d="M182.53138,43.58942l-2.71615,26.97384" fill="none" stroke="#000000" stroke-width="2" stroke-linecap="round"/><path d="M166.10784,51.64683l21.75213,-1.49702" fill="none" stroke="#000000" stroke-width="2" stroke-linecap="round"/><path d="M162.64358,62.19001l25.28446,-1.80258" fill="none" stroke="#000000" stroke-width="2" stroke-linecap="round"/><path d="M189.46304,85.35838l2.12636,-12.11064" fill="none" stroke="#000000" stroke-width="2" stroke-linecap="round"/><path d="M296.71086,63.72103c-0.1405,1.77811 -8.37765,7.31094 -11.6347,16.45931c-3.03902,8.53592 -0.97363,20.54505 -4.71373,26.79522c-4.275,7.14412 -10.95448,5.7167 -13.99639,5.33133c-8.06528,-1.02172 -0.35514,-14.8022 -4.57579,-9.90838c-3.91037,4.53406 -2.31562,14.09534 -2.89881,14.46506c-2.76492,1.75295 -14.51504,-16.09503 -13.57677,-27.96894c0.93826,-11.8739 -11.13629,-34.79247 -3.72867,-34.20713c4.1011,0.32407 13.58929,8.8737 19.17685,18.32689c2.19357,3.71111 3.51411,11.00212 4.08138,12.80281c1.98584,0.18388 2.69004,-3.68797 3.59695,-7.56711c1.56133,-6.67832 2.71755,-15.18029 4.79114,-16.0471c7.66337,-1.07321 23.70865,-1.3941 23.47855,1.51804z" fill="#ffa000" stroke="#000000" stroke-width="2" stroke-linecap="butt"/><path d="M232.39416,78.51853c-0.07769,0.98323 4.74099,-9.27228 8.47221,-8.51021c4.59086,0.93765 9.69312,6.15012 9.50588,9.61811c-0.26504,4.90887 -18.18923,16.45989 -16.97598,20.04375c1.47521,4.35769 10.00615,1.06906 9.29843,4.58892c-1.07362,5.33976 -14.28612,8.4417 -16.64124,8.2556c-6.81946,-0.53887 -6.76736,-34.59919 -6.04464,-43.74531c0.72272,-9.14612 0.52785,-10.20567 7.36352,-9.94271c14.4193,0.55471 5.74454,10.54574 5.02182,19.69186z" fill="#ffa000" stroke="#000000" stroke-width="2" stroke-linecap="butt"/><path d="M382.78639,73.17707c-1.57364,17.02466 -10.1684,8.23603 -21.4782,7.34234c-1.42125,-0.1123 11.31084,35.41246 9.93051,35.32186c-3.36658,-0.22098 -10.11592,11.18037 -14.85803,5.59839c-4.37088,-5.14503 -0.80031,-29.5381 -3.9078,-39.19694c-3.97654,-12.36012 -14.03788,-10.08737 -13.71481,-14.17596c1.41373,-17.89108 -5.09128,-16.92003 6.38148,-16.01347c11.47275,0.90657 37.64685,21.12376 37.64685,21.12376z" fill="#ffa000" stroke="#000000" stroke-width="2" stroke-linecap="butt"/><path d="M222.90031,102.47184c-0.20901,2.64499 -7.61515,5.10189 -9.6957,1.79743c-1.91395,-3.03981 1.6088,-11.91549 -1.19626,-8.74848c-5.89205,6.65232 -9.52152,16.59342 -12.21783,16.38036c-1.87619,-0.14825 -7.90461,-5.65523 -6.07115,-10.46267c1.57584,-4.13203 10.83316,-7.29372 11.95001,-11.31522c3.45037,-12.42378 -9.52356,-32.88703 3.33038,-31.87134c3.13749,0.24793 15.3317,5.87809 16.00592,10.19457c1.35873,8.69896 -1.77017,29.78344 -2.10536,34.02534z" fill="#ffa000" stroke="#000000" stroke-width="2" stroke-linecap="butt"/><path d="M350.70801,72.22689c5.4252,4.71947 -0.84612,15.55781 -1.27195,26.33672c-0.3129,7.92011 6.32228,17.18384 3.84162,16.98782c-4.61982,-0.36505 -12.01436,6.7778 -15.59641,2.61025c-2.78118,-3.23578 0.79251,-10.8244 -1.13621,-16.60771c-1.79274,-5.37563 0.75049,12.39106 -4.98521,11.58176c-16.9912,-2.39747 -9.87998,-38.75409 -12.58906,-42.53963c2.14398,-1.23446 10.4639,-12.76738 16.32063,-12.30459c1.63942,0.12956 3.36938,6.85468 3.23249,14.28081c-0.10948,5.93792 -2.1874,12.79002 -0.74062,13.63789c1.37258,0.80437 0.79259,-9.05757 2.34474,-12.92905c2.07527,-5.17624 6.51105,-4.59388 10.57995,-1.05428z" fill="#ffa000" stroke="#000000" stroke-width="2" stroke-linecap="butt"/><path d="M214.30419,81.76667l0.45916,-5.81071" fill="none" stroke="#000000" stroke-width="2" stroke-linecap="round"/><path d="M306.49008,58.35445c2.01982,-0.38929 23.978,14.73091 23.62003,19.26121c-0.93193,11.79367 -1.13654,31.63986 -3.76784,32.88389c-49.80196,23.54552 -39.20061,-14.47204 -38.26869,-26.2657c0.93193,-11.79366 15.21771,-25.26285 18.41652,-25.87939z" fill="#ffa000" stroke="#000000" stroke-width="2" stroke-linecap="butt"/><path d="M327.37536,97.42546l-10.01594,0.96264c0,0 -1.26749,4.82318 -1.43764,3.3946c-0.17013,-1.42859 0.5589,-10.77276 0.5589,-10.77276" fill="none" stroke="#000000" stroke-width="2" stroke-linecap="round"/><path d="M293.16031,104.95403c-0.69736,8.82519 8.69802,3.90315 4.94622,7.69957c-2.82849,2.86216 -15.19481,25.80526 -15.13791,-8.21256c0.01482,-8.85268 -0.62932,-17.17538 6.37752,-14.11351c6.36344,2.78071 4.51153,5.8013 3.81416,14.62649z" fill="#ffa000" stroke="#000000" stroke-width="2" stroke-linecap="butt"/><path d="M304.1563,84.1891c-0.35502,4.49283 -5.2493,7.18627 -11.3467,6.70446c-6.09741,-0.48182 -6.9067,-5.08769 -6.55168,-9.58053c0.35502,-4.49283 2.90997,-10.87933 9.00738,-10.39752c6.09741,0.48182 9.24602,8.78076 8.891,13.27357z" fill="#ffa000" stroke="#000000" stroke-width="2" stroke-linecap="butt"/><path d="M312.37518,170.19451c1.1332,-14.34093 -2.70655,-21.53563 2.59661,-25.92352c14.92742,-12.35116 15.34726,16.19987 14.21405,30.54081c-1.1332,14.34093 25.4234,21.70605 11.71936,34.36348c-2.28777,2.11308 -5.04794,5.42396 -8.32992,6.36503c-1.78015,0.51044 0.42754,13.78309 -7.26258,12.64213c-7.35578,-1.09135 -0.00069,-14.91598 -0.75657,-15.73393c-9.40688,-10.17908 -12.82945,-34.04699 -12.18095,-42.25398z" fill="#ffffff" stroke="#000000" stroke-width="2" stroke-linecap="butt"/><path d="M349.49658,149.00902c-0.38425,4.86278 2.09667,-19.60125 8.9465,-22.22324c4.04407,-1.54799 7.26,-1.98454 12.55135,0.79426c8.45226,4.43877 18.47822,13.95269 17.56121,16.64365c-1.72326,5.05687 -5.7044,9.01632 -12.62694,14.92195c-1.33965,1.14285 -6.33414,-3.10291 -7.77649,-1.94792c-2.09626,1.67861 34.77052,55.87779 32.68508,57.70751c-6.19399,5.4345 -23.32928,4.83619 -38.553,-1.11736c-1.05479,-0.41249 3.05229,6.9244 -3.23599,5.25529c-4.79121,-1.27173 -2.05957,-7.33357 -2.9715,-7.72493c-1.75381,-0.75267 -3.42599,-1.55519 -4.73039,-2.38531c-7.22874,-4.6003 -9.01468,-29.04987 -10.5328,-34.6506c-0.81157,-2.99404 -2.68735,10.53148 -2.73556,10.55076c-13.54216,5.42085 -13.52653,-34.61683 -12.32992,-49.76006c1.19659,-15.14322 3.70895,-17.06516 18.25047,-15.91611c14.5415,1.14905 6.69462,14.70884 5.49801,29.85207z" fill="#ffffff" stroke="#000000" stroke-width="2" stroke-linecap="butt"/><path d="M391.98929,124.59358c-0.64188,8.12318 5.50813,13.40824 -3.01617,12.73466c-8.52432,-0.67359 -16.80636,-11.60866 -16.16447,-19.73185c0.64188,-8.12318 5.91416,-8.57835 14.43671,-9.27415c18.1963,-1.48565 5.38584,8.14815 4.74396,16.27133z" fill="#ffffff" stroke="#000000" stroke-width="2" stroke-linecap="butt"/><path d="M317.12408,117.03334c15.99007,-7.87239 19.17477,0.13468 11.20035,8.55921c-4.70258,4.96802 -4.999,14.95332 -11.91875,14.40654c-6.91975,-0.54679 -7.69587,-11.28702 -7.15701,-18.10648c0.53887,-6.81946 1.64791,-1.79326 7.87542,-4.85924z" fill="#ffffff" stroke="#000000" stroke-width="2" stroke-linecap="butt"/><path d="M95.21016,148.28369c-3.28232,-21.37736 -9.22098,-18.72648 23.5367,-31.94301c73.09086,-29.48953 40.12011,-1.32648 37.82992,27.65624c-0.21676,2.74314 -39.77144,-5.87728 -39.77144,-5.87728c0,0 41.76495,3.78316 37.52304,20.56804c-2.21809,8.77679 -7.08039,36.16171 -14.59667,40.75498c-11.65934,7.12515 -44.14822,3.13785 -50.78053,2.61377c-8.741,-0.69071 -4.38982,-29.21479 6.96342,-35.65765c4.57718,-2.5975 32.64792,9.88345 32.64792,9.88345c0,0 -30.07003,-6.62117 -33.35236,-27.99853z" fill="#ffffff" stroke="#000000" stroke-width="2" stroke-linecap="butt"/><text transform="translate(181.90083,135.67694) rotate(4.51819) scale(0.43813,0.43813)" font-size="40" xml:space="preserve" fill="#000000" fill-rule="nonzero" stroke="none" stroke-width="1" stroke-linecap="butt" stroke-linejoin="miter" stroke-miterlimit="10" stroke-dasharray="" stroke-dashoffset="0" font-family="Sans Serif" font-weight="normal" text-anchor="start" style="mix-blend-mode: normal"><tspan x="0" dy="0">sam_production</tspan></text><path d="M266.26513,194.14142c-5.62093,-2.86073 -10.14273,-18.74111 -9.65704,-23.02235c1.18748,-10.4672 2.63274,-45.92365 7.90292,-54.12159c6.484,-10.08607 13.31677,-3.43472 16.86964,-3.15397c2.27646,0.17989 -3.45861,46.50424 2.13202,39.27549c2.41435,-3.12179 6.28528,-30.52313 8.38664,-32.13886c3.89987,-2.99859 10.87528,-2.74935 13.67773,-0.15154c4.66955,4.32857 4.36501,11.08798 5.83284,23.18338c2.25387,18.57266 4.63836,44.44475 4.02652,52.18773c-1.96528,24.87099 -24.18568,19.28419 -31.80743,18.68191c-4.80061,-0.37933 5.82879,-31.27182 2.69032,-43.40956c-1.84436,-7.13294 -11.82415,26.85795 -20.05413,22.66936z" fill="#ffffff" stroke="#000000" stroke-width="2" stroke-linecap="butt"/><path d="M236.69258,136.18896c2.23375,-10.55554 4.42048,-9.11511 9.5458,-12.3321c24.94391,-13.89706 12.03431,14.19159 9.8313,42.07117c-2.20303,27.87958 31.15182,30.96553 23.03005,36.90171c-7.21926,5.27653 -29.27302,34.61807 -38.65916,8.27372c-8.60038,-24.13893 -8.597,-52.0005 -3.74798,-74.91451z" fill="#ffffff" stroke="#000000" stroke-width="2" stroke-linecap="butt"/><path d="M253.5849,165.00082l-8.43898,0.42947" fill="none" stroke="#000000" stroke-width="2" stroke-linecap="round"/><path d="M249.04379,185.47186c0,0 -4.07996,-13.2096 -4.71931,-20.27504c-0.71725,-7.92618 0.62253,-24.99736 0.62253,-24.99736" fill="none" stroke="#000000" stroke-width="2" stroke-linecap="round"/><path d="M161.6364,156.27341c20.64764,10.19938 33.99469,-13.76128 28.50724,0.26687c-4.81081,12.29842 -15.5057,18.70356 -16.2659,18.24137c-15.5833,-9.47487 -11.93744,20.76092 -18.49889,29.50828c-0.48008,0.64001 -0.69686,21.39093 -1.7615,21.44249c-11.04407,0.53478 -2.92778,-17.7012 -4.10307,-17.79407c-13.13751,-1.03812 -12.02181,-0.98266 -6.63155,-15.50692c19.96463,-53.7955 6.93815,-41.9946 18.75365,-36.15807z" fill="#ffffff" stroke="#000000" stroke-width="2" stroke-linecap="butt"/><path d="M167.48674,105.35931c47.71937,-11.96124 26.42682,10.10162 25.08778,27.04737c-1.14114,14.44122 -10.15803,25.50874 -20.58779,24.68459c-10.42977,-0.82416 -20.59787,-7.56064 -19.45674,-22.0019c0.75154,-9.51091 -3.99807,-24.97889 14.95678,-29.73007z" fill="#ffffff" stroke="#000000" stroke-width="2" stroke-linecap="butt"/><path d="M209.97743,141.09056c6.9943,1.44755 8.51776,10.13508 2.58819,25.05419c-5.12749,12.90105 -12.70542,44.76643 -19.83424,45.20857c-2.67055,0.16563 -3.22539,1.32809 -4.75146,1.56586c-0.54025,0.08416 -2.21917,7.08187 -3.44756,7.15467c-1.48558,0.08806 -2.56312,-6.83004 -3.44481,-6.81122c-15.89136,0.33946 7.54406,-28.06467 5.85981,-28.17724c-1.15941,-0.07748 -14.57266,26.25854 -15.60037,26.14068c-38.48853,-4.4134 13.49758,-36.49147 14.45892,-48.65763c1.0936,-13.8395 4.17799,-25.61585 24.17149,-21.47792z" fill="#ffffff" stroke="#000000" stroke-width="2" stroke-linecap="butt"/><path d="M234.07619,134.40708c0.58756,6.53 -3.14095,47.92329 -1.21148,56.03356c5.60185,23.54661 17.29326,19.03614 -4.07641,20.0522c-0.61487,0.02924 2.53186,7.18004 -4.15956,8.70624c-7.91322,1.80488 -2.8683,-7.20621 -3.81861,-7.08873c-52.78741,6.5256 -10.56273,-21.25324 -8.47857,-47.62854c0.36651,-4.6382 6.48944,-18.85105 2.35306,-23.15131c-3.88691,-4.04088 -18.0383,1.8585 -18.03827,-3.27237c0.00013,-19.10647 -23.53794,-26.83885 25.38485,-29.2698c29.96963,-1.48916 25.93058,-4.37197 30.59403,2.07185c7.22942,9.98942 -18.8715,19.96364 -18.5491,23.54688z" fill="#ffffff" stroke="#000000" stroke-width="2" stroke-linecap="butt"/><path d="M196.4615,171.08465l7.08327,-20.27016" fill="none" stroke="#000000" stroke-width="2" stroke-linecap="round"/><path d="M191.96296,130.89662l-14.97602,-0.08708" fill="none" stroke="#000000" stroke-width="2" stroke-linecap="round"/><path d="M177.37782,144.36156c0,0 -2.45453,-11.71237 -2.0284,-15.49523c0.38594,-3.42597 4.47658,-6.2375 4.47658,-6.2375" fill="none" stroke="#000000" stroke-width="2" stroke-linecap="round"/></g><g fill="#ffffff" stroke="none" stroke-width="0" stroke-linecap="butt"><path d="M61.84558,279.36055c0,0 -0.58571,1.72929 -2.51699,3.62088c-6.52082,6.38678 -22.35141,16.95558 -30.94575,-10.9013c-0.18026,-0.58434 -0.21454,-3.98914 -0.05261,-4.548c0.54523,-1.88184 0.1581,-3.85027 0.7779,-5.43062c7.22389,-18.41891 20.09976,-16.85499 27.70102,-12.95598c4.38447,2.24897 7.16998,5.91275 7.16998,5.91275c0,0 -0.3813,2.18833 -0.96466,2.69468c-0.83171,0.72195 -3.55033,1.22457 -3.55033,1.22457c0,0 -4.24005,-5.96067 -11.14819,-5.56729c-4.87956,0.27786 -12.71576,4.73375 -14.18023,12.26728c-0.28665,1.47456 -0.40178,1.40762 -0.205,3.30903c2.14286,20.7061 24.56613,6.27963 24.56613,6.27963c0,0 1.31232,0.56594 1.89657,1.2803c0.52584,0.64291 1.45218,2.81411 1.45218,2.81411z"/><path d="M67.11767,291.2525l1.96716,-41.58711l15.09968,-0.58827c0,0 9.26245,-0.02883 8.9451,9.3731c-0.36567,10.83283 -7.94503,9.24156 -7.80897,10.06992c0.24828,1.51136 -0.28658,1.37259 0.10792,3.00018c0.73476,3.03128 10.08732,11.90603 10.2471,14.38069c0.12505,1.93708 -3.03381,2.64939 -3.49933,4.50713c-0.21887,0.87344 -11.58085,-14.46387 -13.18348,-15.82918c-0.62384,-0.53148 -3.82963,-1.06222 -3.97669,-0.40748c-1.38987,6.18807 -0.26022,16.88415 -0.26022,16.88415zM77.62997,265.69966c3.07606,0.1455 8.19026,-0.06501 8.45871,-5.74027c0.31236,-6.60353 -6.34976,-5.13824 -9.42582,-5.28375c-3.07606,-0.1455 -2.71716,2.3707 -2.86266,5.44676c-0.1455,3.07606 0.75371,5.43175 3.82976,5.57726z"/><path d="M98.98505,289.92446c0,0 -0.06942,-12.07621 0.17691,-17.89806c0.29991,-7.08702 1.49366,-21.57969 1.49366,-21.57969c0,0 13.92133,-0.53735 17.94529,-0.62424c1.94478,-0.04198 4.90683,0.1308 4.90683,0.1308c0,0 0.16275,3.19766 0.16614,5.49747c0.00106,0.72191 -16.25097,-0.02047 -16.25281,1.20314c-0.00234,1.57002 -1.14256,7.79386 -0.40846,9.98714c0.28383,0.848 9.77438,-0.42077 10.15518,0.43825c0.34202,0.77156 -0.04126,4.08163 0.27023,4.87422c0.28996,0.73788 -10.43463,1.14423 -10.16309,1.86364c0.465,1.23199 -0.24113,6.11393 0.53118,7.27888c0.24301,0.36654 15.00772,-0.23222 15.18258,0.16661c2.04452,4.66332 0.57855,9.03743 0.57855,9.03743c0,0 -16.5489,0.81926 -21.08123,0.75003c-2.82977,-0.04322 -3.50099,-1.1256 -3.50099,-1.1256z"/><path d="M125.97593,289.9581c0,0 3.24536,-11.40606 5.61146,-17.25696c2.60225,-6.4349 8.90947,-19.6402 8.90947,-19.6402c0,0 6.34413,-8.26067 11.40781,1.57975c1.78871,3.47607 9.89723,37.23559 7.68226,38.66719c-1.75547,1.13461 -2.49781,0.3464 -5.06937,-0.79017c-1.12636,-0.49782 -2.26609,-11.15769 -3.49371,-11.45483c-0.94884,-0.22967 -12.43503,-0.00297 -13.31564,-0.09053c-3.51728,-0.34974 -1.49936,11.46297 -8.65007,11.44691c-1.245,-0.0028 -3.08219,-2.46114 -3.08219,-2.46114zM143.03349,274.80687c3.07268,-0.2047 5.9781,1.05173 6.1236,-2.02433c0.1455,-3.07606 -1.41835,-10.99126 -4.43992,-11.58578c-0.99393,-0.19557 -2.11533,5.22169 -3.75005,8.37586c-1.41702,2.73413 -4.45382,5.6686 2.0664,5.23425z"/><path d="M173.00019,294.2868c0,0 -0.44098,-1.70808 -0.34264,-4.36061c0.2667,-7.19503 1.31735,-21.48978 1.72435,-28.63694c0.11819,-2.0756 -10.16884,0.66479 -10.65858,-1.39645c-0.75417,-3.17412 -0.21109,-5.53943 -0.21109,-5.53943c0,0 13.72742,-1.13004 18.47608,-1.08583c2.48076,0.0231 7.9469,1.33182 7.9469,1.33182c0,0 -0.21305,4.02862 -0.35933,6.68022c-0.16426,2.97782 -10.5246,-2.3059 -10.62499,0.17759c-0.36175,8.94814 -1.07009,32.22391 -1.07009,32.22391c0,0 -1.75701,0.33249 -2.65736,0.44424c-0.6158,0.07642 -2.22322,0.16146 -2.22322,0.16146z"/><path d="M192.70225,293.74562c0,0 0.52569,-2.79232 0.63423,-5.08679c0.04764,-1.00709 8.19191,1.33881 8.26629,-0.59975c0.19748,-5.14775 3.32518,-19.53642 1.46575,-26.80136c-0.54803,-2.14123 -6.9457,0.33533 -7.83475,-0.91477c-1.39898,-1.96708 -0.67386,-5.86939 -0.67386,-5.86939c0,0 10.74529,-0.48053 15.17182,-0.3438c2.91992,0.09018 8.80276,1.08426 8.80276,1.08426c0,0 -0.0602,3.36894 -0.2562,5.49844c-0.05457,0.5929 -9.13534,0.37696 -9.22815,1.33886c-0.20301,2.10378 -2.17725,22.25124 -1.7261,25.50499c0.13073,0.94276 7.28268,-0.25642 7.47997,0.47714c2.00903,7.46941 0.087,6.76177 0.087,6.76177c0,0 -15.67285,0.04584 -19.2805,-0.12481c-1.41141,-0.06676 -2.90826,-0.92476 -2.90826,-0.92476z"/><path d="M221.40677,259.61875c0,0 0.80306,-1.68014 1.57447,-2.14939c1.26818,-0.7714 5.31609,-2.04198 5.31609,-2.04198c0,0 7.0352,25.61263 8.27784,25.51819c0.50549,-0.03843 12.01705,-23.05244 12.01705,-23.05244l4.50834,3.72671c0,0 -12.88478,34.26281 -16.00344,34.03323c-4.80428,-0.35363 -15.69035,-36.03434 -15.69035,-36.03434z"/><path d="M254.86651,298.78656c0,0 -0.06942,-12.07621 0.17691,-17.89806c0.29991,-7.08702 1.49366,-21.57969 1.49366,-21.57969c0,0 13.92133,-0.53735 17.94529,-0.62424c1.94478,-0.04198 4.90683,0.1308 4.90683,0.1308c0,0 0.16275,3.19766 0.16614,5.49747c0.00106,0.72191 -16.25097,-0.02047 -16.25281,1.20314c-0.00234,1.57002 -1.14256,7.79386 -0.40846,9.98714c0.28383,0.848 9.77438,-0.42077 10.15518,0.43825c0.34202,0.77156 -0.04126,4.08163 0.27023,4.87422c0.28996,0.73788 -10.43463,1.14423 -10.16309,1.86364c0.465,1.23199 -0.24113,6.11393 0.53118,7.27888c0.24301,0.36654 15.00772,-0.23222 15.18258,0.16661c2.04452,4.66332 0.57855,9.03743 0.57855,9.03743c0,0 -16.5489,0.81926 -21.08123,0.75003c-2.82977,-0.04322 -3.50099,-1.1256 -3.50099,-1.1256z"/></g><g fill="#ffffff" stroke="none" stroke-width="0" stroke-linecap="butt"><path d="M296.52669,296.93216c0,0 -4.12328,-0.6727 -3.88425,-2.2852c0.8316,-5.61024 9.93318,-38.52274 9.93318,-38.52274c0,0 3.58149,-0.3556 6.29954,-0.06365c0.36608,0.03932 1.7092,0.0239 1.9657,1.93745c0.63174,4.71299 0.1033,14.2097 1.76199,14.59525c1.82459,0.42411 5.78078,-14.47095 7.50509,-14.20262c3.74752,0.58316 6.43651,0.30813 6.43651,0.30813c0,0 3.87508,30.24552 3.56815,37.16922c-0.13073,2.94892 -5.38916,3.90777 -5.38916,3.90777c0,0 -2.73725,-23.76347 -6.29006,-24.12176c-0.96858,-0.09766 -4.31812,8.69435 -5.9022,9.85993c-1.08632,0.79933 -3.96661,-13.1793 -5.11576,-12.3486c-4.44042,3.20988 -6.83856,15.89799 -8.55829,21.7589c-0.67168,2.28909 -2.33043,2.00799 -2.33043,2.00799z"/><path d="M370.43143,284.10392c-1.49242,13.89445 -10.7302,24.29581 -20.63314,23.23212c-9.90295,-1.06369 -16.72104,-13.18963 -15.22862,-27.08408c1.49242,-13.89442 10.7302,-24.29581 20.63314,-23.23212c9.90295,1.06369 16.72103,13.18965 15.22862,27.08408zM349.68954,296.28711c3.37151,0.36214 10.47503,1.3217 12.99014,-13.47853c2.10958,-12.41396 -5.42708,-16.56723 -8.79859,-16.92936c-3.37151,-0.36214 -10.64437,3.30803 -12.48054,13.90342c-2.28048,13.15924 4.91748,16.14233 8.28899,16.50447z"/><path d="M372.59664,307.75042c0,0 0.32258,-4.60927 0.45163,-9.01086c0.01814,-0.61848 8.57139,0.57945 8.59362,-0.2454c0.14799,-5.48997 3.57952,-19.76131 0.69322,-28.45174c-0.38883,-1.17075 -7.60382,-0.35279 -7.91579,-1.36782c-1.66511,-5.41758 -0.48301,-6.61325 -0.48301,-6.61325c0,0 39.42741,-6.89066 35.41946,24.62034c-3.87605,30.47411 -36.75913,21.06874 -36.75913,21.06874zM389.9423,296.4354c3.37151,0.36214 9.79242,0.88311 11.33039,-10.84817c1.40023,-10.6807 -6.54376,-12.57809 -9.91527,-12.94022c-3.37151,-0.36214 -2.66309,7.98874 -3.02522,11.36025c-0.36214,3.37151 -1.76141,12.06601 1.61011,12.42815z"/><path d="M412.54485,310.65428c0,0 0.71753,-13.27824 1.37099,-19.66118c0.79551,-7.77005 3.06032,-23.62131 3.06032,-23.62131c0,0 15.33707,0.32449 19.76575,0.4935c2.14038,0.0817 5.38479,0.46632 5.38479,0.46632c0,0 -0.03131,3.52543 -0.17876,6.05352c-0.04629,0.79357 -17.86105,-1.09077 -17.9435,0.25406c-0.10578,1.72555 -1.76818,8.49158 -1.10548,10.9506c0.25623,0.95075 10.77126,0.18003 11.13334,1.14926c0.32521,0.87055 -0.31366,4.48364 -0.02339,5.37531c0.2702,0.83011 -11.54453,0.57176 -11.29336,1.38036c0.43012,1.38471 -0.66694,6.70433 0.10537,8.03556c0.24302,0.41886 16.51113,0.7313 16.67711,1.18116c1.94071,5.26013 0.04184,9.9716 0.04184,9.9716c0,0 -18.24372,-0.18735 -23.22092,-0.56138c-3.10752,-0.23352 -3.77415,-1.46736 -3.77415,-1.46736z"/></g></g></g></svg>